# File created by Blade
# Date/Time:  Tue Apr 07 21:25:57 2015
# Frame Rate: 120.000 fps
#------------------------------------------------------
:FULLY-SPECIFIED
:DEGREES
716
root -12.405176 32.949959 6.092108 13.158540 -67.513413 1.149462
Spine -13.694878 4.328606 -2.319489
Head 7.428338 28.905430 -4.189627
LeftShoulder -29.329986 44.858568 9.724495
LeftArm 58.211670 -50.119607 -84.325050
LeftForeArm 2.054167 0.000000 2.741452
LeftHand 8.558760 -0.000000 8.400937
LeftHandThumb1 -26.253704 0.000000 33.147579
RightShoulder -3.919616 4.996294 -28.827917
RightArm 20.141741 7.119109 56.656801
RightForeArm -10.000777 0.000000 9.167933
RightHand 8.392487 -0.000000 -2.382894
RightHandThumb1 -24.326973 -0.000000 -32.862282
LeftUpLeg -29.674880 -7.136471 -0.203339
LeftLeg 7.091400 -0.000000 -0.000000
LeftFoot 11.428946 9.975776 -20.802973
LeftToeBase -15.255705 -0.000000 0.000000
RightUpLeg -5.013973 13.388595 3.140359
RightLeg 17.459602 -0.000000 -0.000000
RightFoot -11.448420 -7.740482 7.987987
RightToeBase -14.933376 -0.000000 0.000000
717
root -12.294263 32.930495 6.015745 12.970611 -66.799946 1.186998
Spine -13.377538 4.210556 -2.168461
Head 7.189799 29.398503 -4.494247
LeftShoulder -29.411167 44.768309 9.626830
LeftArm 58.351495 -50.109726 -84.338994
LeftForeArm 2.186504 -0.000000 2.880213
LeftHand 8.322985 -0.000000 7.951209
LeftHandThumb1 -26.253704 0.000000 33.147579
RightShoulder -3.925816 5.083053 -28.794435
RightArm 20.153254 7.115850 56.774014
RightForeArm -10.085687 -0.000000 8.875701
RightHand 8.271950 -0.000000 -2.098994
RightHandThumb1 -24.326973 -0.000000 -32.862282
LeftUpLeg -29.754759 -7.449968 -0.167015
LeftLeg 6.922538 -0.000000 -0.000000
LeftFoot 12.008838 9.916577 -20.934849
LeftToeBase -15.215565 -0.000000 0.000000
RightUpLeg -5.191293 13.918375 3.123342
RightLeg 17.917010 -0.000000 -0.000000
RightFoot -11.214482 -7.420065 7.729393
RightToeBase -16.306350 -0.000000 0.000000
718
root -12.178179 32.907880 5.935903 12.780376 -66.043195 1.216668
Spine -13.055141 4.130389 -2.036650
Head 6.987436 29.727196 -4.750534
LeftShoulder -29.348838 44.708985 9.639206
LeftArm 58.460638 -50.116559 -84.350901
LeftForeArm 2.240857 -0.000000 3.113373
LeftHand 7.862749 -0.000000 7.763421
LeftHandThumb1 -26.253704 0.000000 33.147579
RightShoulder -3.930178 5.154922 -28.737025
RightArm 20.030401 6.897162 56.736620
RightForeArm -9.908694 -0.000000 8.746263
RightHand 8.121104 -0.000000 -2.090313
RightHandThumb1 -24.326973 -0.000000 -32.862282
LeftUpLeg -29.821969 -7.739169 -0.152449
LeftLeg 6.718974 -0.000000 -0.000000
LeftFoot 12.633428 9.816704 -21.095224
LeftToeBase -15.185758 -0.000000 0.000000
RightUpLeg -5.319996 14.393797 3.151144
RightLeg 18.277659 -0.000000 -0.000000
RightFoot -11.044450 -7.222061 7.492377
RightToeBase -17.387227 -0.000000 0.000000
719
root -12.060681 32.884383 5.855900 12.601432 -65.264907 1.293287
Spine -12.788922 4.026834 -1.912187
Head 6.749055 30.001668 -5.053916
LeftShoulder -29.442220 44.657788 9.484278
LeftArm 58.611310 -50.034698 -84.175850
LeftForeArm 2.236474 -0.000000 3.245939
LeftHand 7.809748 0.000000 7.558465
LeftHandThumb1 -26.253704 0.000000 33.147579
RightShoulder -3.937728 5.275135 -28.728761
RightArm 19.913517 6.867370 56.838102
RightForeArm -9.979890 -0.000000 8.576791
RightHand 8.060412 -0.000000 -1.844531
RightHandThumb1 -24.326973 -0.000000 -32.862282
LeftUpLeg -29.908730 -7.951744 -0.203221
LeftLeg 6.444027 -0.000000 -0.000000
LeftFoot 13.322253 9.686228 -21.296770
LeftToeBase -15.052661 -0.000000 0.000000
RightUpLeg -5.424210 14.833702 3.160678
RightLeg 18.404726 -0.000000 -0.000000
RightFoot -10.925128 -7.178528 7.295912
RightToeBase -18.261562 -0.000000 0.000000
720
root -11.935104 32.860843 5.767199 12.445418 -64.421777 1.341254
Spine -12.500563 3.916115 -1.778424
Head 6.541243 30.149106 -5.352758
LeftShoulder -29.431053 44.565215 9.415657
LeftArm 58.287485 -49.767197 -83.435233
LeftForeArm 1.843169 -0.000000 3.470876
LeftHand 7.496448 0.000000 7.480690
LeftHandThumb1 -26.253704 0.000000 33.147579
RightShoulder -3.945779 5.283188 -28.694234
RightArm 19.866440 6.903306 56.900628
RightForeArm -9.897612 0.000000 8.424287
RightHand 8.071682 -0.000000 -1.764176
RightHandThumb1 -24.326973 -0.000000 -32.862282
LeftUpLeg -29.999882 -8.180866 -0.235698
LeftLeg 6.114215 -0.000000 -0.000000
LeftFoot 14.059599 9.493991 -21.410940
LeftToeBase -14.629046 -0.000000 0.000000
RightUpLeg -5.482944 15.201412 3.218052
RightLeg 18.345637 -0.000000 -0.000000
RightFoot -10.955572 -7.282659 7.241795
RightToeBase -18.510009 -0.000000 0.000000
721
root -11.800877 32.839699 5.672732 12.322380 -63.475817 1.358523
Spine -12.179033 3.776519 -1.609714
Head 6.265126 30.155449 -5.719922
LeftShoulder -29.440099 44.467597 9.284165
LeftArm 58.381646 -49.594172 -83.039202
LeftForeArm 1.744892 -0.000000 3.632117
LeftHand 7.383455 -0.000000 7.431163
LeftHandThumb1 -26.253704 0.000000 33.147579
RightShoulder -3.977181 5.282694 -28.661637
RightArm 19.809538 6.953856 56.929418
RightForeArm -9.915680 -0.000000 8.274420
RightHand 8.141787 -0.000000 -1.841363
RightHandThumb1 -24.326973 -0.000000 -32.862282
LeftUpLeg -30.107738 -8.478497 -0.237529
LeftLeg 5.761067 -0.000000 -0.000000
LeftFoot 14.943848 9.410899 -22.085340
LeftToeBase -14.725752 -0.000000 0.000000
RightUpLeg -5.509052 15.383654 3.340404
RightLeg 18.120364 -0.000000 -0.000000
RightFoot -11.030695 -7.607879 7.136672
RightToeBase -18.413397 -0.000000 0.000000
722
root -11.669489 32.821491 5.576892 12.222356 -62.510846 1.427885
Spine -11.962631 3.625256 -1.482974
Head 6.058102 30.102622 -6.031795
LeftShoulder -29.502715 44.227988 9.155118
LeftArm 58.458051 -49.400753 -82.514429
LeftForeArm 2.054435 -0.000000 3.680972
LeftHand 7.523222 -0.000000 7.344723
LeftHandThumb1 -26.253704 0.000000 33.147579
RightShoulder -4.022357 5.243146 -28.620867
RightArm 19.796651 6.975205 56.959949
RightForeArm -9.800378 -0.000000 8.123639
RightHand 8.178023 -0.000000 -1.762054
RightHandThumb1 -24.326973 -0.000000 -32.862282
LeftUpLeg -30.221374 -8.770921 -0.257127
LeftLeg 5.260217 -0.000000 -0.000000
LeftFoot 15.896351 9.338375 -22.788232
LeftToeBase -14.755623 -0.000000 0.000000
RightUpLeg -5.551773 15.418081 3.471156
RightLeg 17.783988 -0.000000 -0.000000
RightFoot -11.158932 -8.109365 7.089249
RightToeBase -18.500460 -0.000000 0.000000
723
root -11.528932 32.805906 5.480751 12.125127 -61.505605 1.555146
Spine -11.802272 3.459415 -1.388864
Head 5.873671 29.937733 -6.311971
LeftShoulder -29.513644 44.125544 9.051704
LeftArm 58.549734 -49.171137 -82.048827
LeftForeArm 2.017623 0.000000 3.909373
LeftHand 7.421492 0.000000 7.362186
LeftHandThumb1 -26.253704 0.000000 33.147579
RightShoulder -4.023741 5.198688 -28.545641
RightArm 19.718518 6.950747 56.897654
RightForeArm -9.661315 0.000000 8.035317
RightHand 8.126481 0.000000 -1.921797
RightHandThumb1 -24.326973 -0.000000 -32.862282
LeftUpLeg -30.380268 -9.076851 -0.305346
LeftLeg 4.712055 -0.000000 -0.000000
LeftFoot 16.935316 9.369069 -23.599062
LeftToeBase -14.554109 -0.000000 0.000000
RightUpLeg -5.661668 15.184725 3.597829
RightLeg 17.473130 -0.000000 -0.000000
RightFoot -11.263497 -8.700818 6.996980
RightToeBase -18.662499 -0.000000 0.000000
724
root -11.377184 32.790393 5.372797 12.179710 -60.461343 1.663972
Spine -11.785414 3.328124 -1.318966
Head 5.735196 29.653776 -6.541044
LeftShoulder -29.394104 44.055127 9.066117
LeftArm 58.586698 -48.936760 -81.547586
LeftForeArm 2.033159 -0.000000 4.207376
LeftHand 7.089782 -0.000000 7.214581
LeftHandThumb1 -26.253704 0.000000 33.147579
RightShoulder -4.050083 5.105481 -28.447348
RightArm 19.644269 6.770421 56.733239
RightForeArm -9.301975 -0.000000 7.947925
RightHand 8.086462 -0.000000 -1.914967
RightHandThumb1 -24.326973 -0.000000 -32.862282
LeftUpLeg -30.663864 -9.339871 -0.331123
LeftLeg 4.051835 -0.000000 -0.000000
LeftFoot 18.158331 9.483756 -24.743229
LeftToeBase -14.513573 -0.000000 0.000000
RightUpLeg -5.959030 14.696713 3.753295
RightLeg 17.245348 -0.000000 -0.000000
RightFoot -11.387347 -9.318878 6.939143
RightToeBase -18.700047 -0.000000 0.000000
725
root -11.226414 32.774414 5.265515 12.154069 -59.397957 1.790880
Spine -11.727153 3.368245 -1.293757
Head 5.749082 29.133722 -6.678807
LeftShoulder -29.029797 44.054145 9.247335
LeftArm 58.872314 -48.795624 -81.332302
LeftForeArm 2.421330 -0.000000 4.479481
LeftHand 7.123886 -0.000000 6.768038
LeftHandThumb1 -26.253704 0.000000 33.147579
RightShoulder -4.123448 4.944985 -28.355818
RightArm 19.494179 6.861119 56.624458
RightForeArm -9.234007 -0.000000 7.833856
RightHand 8.131318 -0.000000 -1.870609
RightHandThumb1 -24.326973 -0.000000 -32.862282
LeftUpLeg -30.817032 -9.437747 -0.469355
LeftLeg 3.271890 -0.000000 -0.000000
LeftFoot 19.484608 9.490926 -25.920358
LeftToeBase -14.060626 -0.000000 0.000000
RightUpLeg -6.206196 13.862620 3.955889
RightLeg 17.067707 -0.000000 -0.000000
RightFoot -11.524337 -9.857609 6.901643
RightToeBase -18.662038 -0.000000 0.000000
726
root -11.063092 32.762253 5.154195 12.258750 -58.277963 1.937094
Spine -11.777510 3.311963 -1.239021
Head 5.632734 28.630051 -6.941021
LeftShoulder -28.837887 43.981816 9.287689
LeftArm 59.066837 -48.535074 -80.901147
LeftForeArm 2.597982 -0.000000 4.756387
LeftHand 7.081280 -0.000000 6.551805
LeftHandThumb1 -26.253704 0.000000 33.147579
RightShoulder -4.232929 4.832272 -28.304114
RightArm 19.435270 6.892043 56.546940
RightForeArm -9.183794 -0.000000 7.647859
RightHand 8.270368 -0.000000 -1.728798
RightHandThumb1 -24.326973 -0.000000 -32.862282
LeftUpLeg -31.095493 -9.493691 -0.631743
LeftLeg 2.376877 -0.000000 -0.000000
LeftFoot 21.043266 9.605954 -27.393646
LeftToeBase -13.652806 -0.000000 0.000000
RightUpLeg -6.643248 12.753486 4.144434
RightLeg 16.925042 -0.000000 -0.000000
RightFoot -11.724326 -10.392227 7.024319
RightToeBase -18.481786 -0.000000 0.000000
727
root -10.909295 32.753451 5.045648 12.369836 -57.153451 2.055427
Spine -11.846531 3.281913 -1.185200
Head 5.580154 28.111761 -7.137221
LeftShoulder -28.388288 43.729308 9.638988
LeftArm 58.703968 -48.231717 -80.140799
LeftForeArm 2.635951 0.000000 5.118800
LeftHand 7.024088 -0.000000 6.314439
LeftHandThumb1 -26.253704 0.000000 33.147579
RightShoulder -4.305387 4.790143 -28.243887
RightArm 19.241805 6.999310 56.475616
RightForeArm -9.116995 -0.000000 7.562314
RightHand 8.200465 -0.000000 -1.661095
RightHandThumb1 -24.326973 -0.000000 -32.862282
LeftUpLeg -31.243073 -9.534162 -0.771669
LeftLeg 1.269462 -0.000000 -0.000000
LeftFoot 22.630803 9.963775 -29.351938
LeftToeBase -13.130532 -0.000000 0.000000
RightUpLeg -7.024249 11.369662 4.392362
RightLeg 16.706442 -0.000000 -0.000000
RightFoot -11.905062 -10.905170 7.125767
RightToeBase -18.128711 -0.000000 0.000000
728
root -10.750543 32.749106 4.932308 12.469994 -56.040974 2.187374
Spine -11.885960 3.289122 -1.145453
Head 5.478390 27.512571 -7.367996
LeftShoulder -27.377287 43.060233 10.585821
LeftArm 57.280830 -47.989444 -78.917420
LeftForeArm 2.773487 -0.000000 5.747116
LeftHand 6.936713 -0.000000 6.034239
LeftHandThumb1 -26.253704 0.000000 33.147579
RightShoulder -4.353683 4.701319 -28.185980
RightArm 19.049578 7.099743 56.400837
RightForeArm -9.181540 0.000000 7.446732
RightHand 8.280431 -0.000000 -1.913564
RightHandThumb1 -24.326973 -0.000000 -32.862282
LeftUpLeg -31.327070 -9.406623 -0.989083
LeftLeg 0.029111 -0.000000 -0.000000
LeftFoot 24.369598 10.462173 -31.774820
LeftToeBase -11.510340 -0.000000 0.000000
RightUpLeg -7.445055 9.793557 4.652351
RightLeg 16.517915 -0.000000 -0.000000
RightFoot -12.214510 -11.447937 7.027858
RightToeBase -17.449802 -0.000000 0.000000
